<svg width="42" height="41" viewBox="0 0 42 41" fill="none" xmlns="http://www.w3.org/2000/svg">
<path d="M41.0272 13.6727C40.9538 13.2327 40.8938 12.8894 40.4272 12.6044C21.3456 1.28608 21.6156 0.442756 20.3773 1.19108C5.91571 10.181 1.89073 12.186 1.3124 12.886C0.787405 13.4243 1.0274 14.2493 1.0274 26.7159C0.992403 28.1343 13.9323 35.8192 20.2256 40.7225C20.7806 41.1175 21.479 41.0542 21.8973 40.6742C40.6038 27.4143 41.0588 27.9476 41.0272 26.7159C41.0272 26.7159 41.0072 13.5043 41.0272 13.6727ZM38.5272 24.4909L32.0672 20.5593L38.5272 16.0643V24.4909ZM29.7322 19.1376L22.2773 14.601V4.4844L37.4872 13.7427L29.7322 19.1376ZM21.0273 25.1926L14.5673 20.6976L21.0273 16.766L27.4873 20.6976L21.0273 25.1926ZM19.7773 4.48273V14.606C16.879 16.4043 14.429 17.906 12.359 19.1626L4.56738 13.7427L19.7773 4.48273ZM10.0157 20.5793C6.89237 22.4576 4.85238 23.651 3.52739 24.4459V16.0643L10.0157 20.5793ZM12.2323 22.1193L19.7773 27.3676V37.3659L4.56738 26.7843L12.2323 22.1193ZM22.2773 37.3675V27.3693L29.8222 22.121L37.4872 26.7859L22.2773 37.3675Z" fill="#DDEDD9"/>
<path d="M41.0272 13.6727C40.9538 13.2327 40.8938 12.8894 40.4272 12.6044C21.3456 1.28608 21.6156 0.442756 20.3773 1.19108C5.91571 10.181 1.89073 12.186 1.3124 12.886C0.787405 13.4243 1.0274 14.2493 1.0274 26.7159C0.992403 28.1343 13.9323 35.8192 20.2256 40.7225C20.7806 41.1175 21.479 41.0542 21.8973 40.6742C40.6038 27.4143 41.0588 27.9476 41.0272 26.7159C41.0272 26.7159 41.0072 13.5043 41.0272 13.6727ZM38.5272 24.4909L32.0672 20.5593L38.5272 16.0643V24.4909ZM29.7322 19.1376L22.2773 14.601V4.4844L37.4872 13.7427L29.7322 19.1376ZM21.0273 25.1926L14.5673 20.6976L21.0273 16.766L27.4873 20.6976L21.0273 25.1926ZM19.7773 4.48273V14.606C16.879 16.4043 14.429 17.906 12.359 19.1626L4.56738 13.7427L19.7773 4.48273ZM10.0157 20.5793C6.89237 22.4576 4.85238 23.651 3.52739 24.4459V16.0643L10.0157 20.5793ZM12.2323 22.1193L19.7773 27.3676V37.3659L4.56738 26.7843L12.2323 22.1193ZM22.2773 37.3675V27.3693L29.8222 22.121L37.4872 26.7859L22.2773 37.3675Z" fill="url(#paint0_linear_402_79)"/>
<defs>
<linearGradient id="paint0_linear_402_79" x1="21.0005" y1="0.990479" x2="21.0005" y2="40.9905" gradientUnits="userSpaceOnUse">
<stop stop-color="#35394C"/>
<stop offset="0.729167" stop-color="#354C49"/>
</linearGradient>
</defs>
</svg>
