<svg width="42" height="41" viewBox="0 0 42 41" fill="none" xmlns="http://www.w3.org/2000/svg">
<path d="M21.0218 0.865479C9.7445 0.865479 0.599121 10.0466 0.599121 21.3724C0.599121 30.4309 6.45094 38.1159 14.57 40.8299C15.5912 41.0188 15.964 40.3857 15.964 39.8418C15.964 39.3542 15.9461 38.0649 15.9359 36.3542C10.2551 37.5925 9.05515 33.6045 9.05515 33.6045C8.12836 31.2352 6.78795 30.6046 6.78795 30.6046C4.93181 29.3331 6.92582 29.3586 6.92582 29.3586C8.976 29.5041 10.0534 31.4726 10.0534 31.4726C11.8764 34.6053 14.8355 33.7015 15.9997 33.1756C16.1835 31.8505 16.712 30.9467 17.2967 30.4335C12.7623 29.9152 7.99304 28.1561 7.99304 20.3C7.99304 18.0609 8.78962 16.2303 10.0968 14.7955C9.88492 14.2772 9.18536 12.1912 10.296 9.37002C10.296 9.37002 12.0117 8.81854 15.9129 11.4713C17.5418 11.0168 19.2882 10.7896 21.0269 10.7819C22.7605 10.7921 24.5094 11.0168 26.1408 11.4738C30.0395 8.82109 31.7526 9.37257 31.7526 9.37257C32.8658 12.1964 32.1663 14.2797 31.9569 14.798C33.2667 16.2329 34.0556 18.0635 34.0556 20.3026C34.0556 28.1791 29.2812 29.9127 24.7315 30.4207C25.4642 31.0539 26.1178 32.3049 26.1178 34.2173C26.1178 36.9593 26.0923 39.1704 26.0923 39.8418C26.0923 40.3908 26.46 41.0291 27.4965 40.8274C35.6028 38.1108 41.4495 30.4284 41.4495 21.3724C41.4495 10.0466 32.3041 0.865479 21.0218 0.865479Z" fill="url(#paint0_linear_402_49)"/>
<defs>
<linearGradient id="paint0_linear_402_49" x1="21.0243" y1="0.865479" x2="21.0243" y2="40.8655" gradientUnits="userSpaceOnUse">
<stop stop-color="#35394C"/>
<stop offset="0.729167" stop-color="#354C49"/>
</linearGradient>
</defs>
</svg>
