<svg width="35" height="41" viewBox="0 0 35 41" fill="none" xmlns="http://www.w3.org/2000/svg">
<path d="M0.00380184 1.461L2.59988 34.6731C2.63885 35.1719 2.97643 35.5972 3.45332 35.7484L17.1139 40.0794C17.3555 40.156 17.6149 40.156 17.8565 40.0794L31.5171 35.7484C31.994 35.5972 32.3315 35.1719 32.3705 34.6731L34.9666 1.461C35.0224 0.746956 34.4581 0.136841 33.7419 0.136841H1.22855C0.512385 0.136841 -0.0519396 0.746956 0.00380184 1.461ZM28.3091 11.7656H11.39L11.9006 16.4742H27.9411L26.8918 29.8975L17.4852 32.8798L8.07867 29.8975L7.53047 22.8846H12.4678V26.3245L17.6172 27.7066L22.7358 26.3245L23.1329 20.8423H7.3708L6.32433 7.45408H28.6461L28.3091 11.7656Z" fill="url(#paint0_linear_402_31)"/>
<defs>
<linearGradient id="paint0_linear_402_31" x1="17.4852" y1="0.136841" x2="17.4852" y2="40.1368" gradientUnits="userSpaceOnUse">
<stop stop-color="#35394C"/>
<stop offset="0.729167" stop-color="#354C49"/>
</linearGradient>
</defs>
</svg>
