<svg width="32" height="41" viewBox="0 0 32 41" fill="none" xmlns="http://www.w3.org/2000/svg">
<path d="M30.8032 11.3243C31.1267 11.3243 31.3892 11.0622 31.3892 10.7384V8.29546C31.3892 8.21154 31.3766 8.13708 31.3357 8.04705C31.3055 7.98174 31.2628 7.9201 31.207 7.867C29.8349 6.56237 25.4019 2.34758 24.0722 1.08323C23.9035 0.923016 23.7005 0.92149 23.7085 0.923321C23.6703 0.920574 24.6371 0.922405 2.97907 0.921795C1.72235 0.921795 0.6875 1.94291 0.6875 3.21367V38.6303C0.6875 39.887 1.70893 40.9219 2.97907 40.9219H29.0973C30.361 40.9219 31.3888 39.8937 31.3888 38.6303V12.9259C31.3888 12.6024 31.1267 12.34 30.8029 12.34C30.4794 12.34 30.217 12.6024 30.217 12.9259V28.9455H7.79872C7.47493 28.9455 7.21278 29.208 7.21278 29.5315C7.21278 29.8553 7.47493 30.1174 7.79872 30.1174H30.2173V38.6303C30.2173 39.2477 29.715 39.75 29.0973 39.75H2.97907C2.3617 39.75 1.85938 39.2477 1.85938 38.6303V30.1174H5.61121C5.9347 30.1174 6.19715 29.8553 6.19715 29.5315C6.19715 29.208 5.9347 28.9455 5.61121 28.9455H1.85938V5.96087H23.0826V6.58587C23.0826 7.8496 24.1107 8.87774 25.3741 8.87774H30.2173V10.7384C30.2173 11.0622 30.4794 11.3243 30.8032 11.3243ZM1.85938 4.78929V3.21367C1.85938 2.5963 2.3617 2.09398 2.97907 2.09398H23.0826V4.78929H1.85938ZM25.3741 7.70586C24.7568 7.70586 24.2544 7.20354 24.2544 6.58587V2.8734L29.3365 7.70586H25.3741Z" fill="url(#paint0_linear_402_47)"/>
<path d="M13.4194 37.6061C14.5156 37.6061 15.4046 36.7345 15.4046 35.6591V32.8036C15.4046 32.5463 15.1958 32.3375 14.9389 32.3375C14.6816 32.3375 14.4729 32.5463 14.4729 32.8036V35.6591C14.4729 36.8606 12.7565 37.1337 12.4117 35.9435C12.3555 35.75 12.1773 35.6084 11.9658 35.6084C11.6552 35.6084 11.433 35.9112 11.5215 36.2078C11.7666 37.0293 12.5264 37.6061 13.4194 37.6061Z" fill="url(#paint1_linear_402_47)"/>
<path d="M18.5054 36.7129C17.9951 36.7129 17.4943 36.5237 17.0506 36.2984C16.7512 36.1458 16.3963 36.365 16.3963 36.7004C16.3963 36.8697 16.4897 37.0174 16.6279 37.0946C18.3674 38.0599 20.5745 37.6046 20.5745 36.0485C20.5745 34.8955 19.4444 34.6587 18.4745 34.4832C17.8321 34.367 17.3982 34.3075 17.396 33.8845C17.3945 33.5287 17.7037 33.1545 18.4822 33.1545C19.0028 33.1545 19.459 33.3217 19.8613 33.539C20.1558 33.6992 20.5226 33.4868 20.5226 33.1447C20.5226 32.9735 20.4268 32.8246 20.2855 32.7492C18.22 31.6479 16.4668 32.5625 16.4643 33.9232C16.461 35.9719 19.6379 35.0887 19.6464 36.0784C19.651 36.6134 18.8716 36.7129 18.5054 36.7129Z" fill="url(#paint2_linear_402_47)"/>
<defs>
<linearGradient id="paint0_linear_402_47" x1="18.4856" y1="32.2594" x2="18.4856" y2="37.5999" gradientUnits="userSpaceOnUse">
<stop stop-color="#35394C"/>
<stop offset="0.395833" stop-color="#354C49"/>
</linearGradient>
<linearGradient id="paint1_linear_402_47" x1="18.4856" y1="32.2594" x2="18.4856" y2="37.5999" gradientUnits="userSpaceOnUse">
<stop stop-color="#35394C"/>
<stop offset="0.395833" stop-color="#354C49"/>
</linearGradient>
<linearGradient id="paint2_linear_402_47" x1="18.4856" y1="32.2594" x2="18.4856" y2="37.5999" gradientUnits="userSpaceOnUse">
<stop stop-color="#35394C"/>
<stop offset="0.395833" stop-color="#354C49"/>
</linearGradient>
</defs>
</svg>
