<svg width="48" height="41" viewBox="0 0 48 41" fill="none" xmlns="http://www.w3.org/2000/svg">
<path d="M47.8451 20.4957C47.8451 17.0908 43.5553 14.6174 37.673 13.1664C39.6871 7.9549 40.0379 3.44412 37.4365 1.51535C36.7242 0.987125 35.8451 0.719619 34.8274 0.719619C31.7889 0.719619 27.594 3.15722 23.2752 7.20956C18.9088 2.88293 14.6742 0.269897 11.6551 0.269897C10.7314 0.269897 9.92987 0.509297 9.26983 0.98131C7.22476 2.44872 6.9243 5.76832 8.40237 10.5815C8.69217 11.5255 9.05757 12.5103 9.46755 13.5154C4.26765 14.9983 0.599121 17.3486 0.599121 20.4957C0.599121 23.5963 4.16103 25.9244 9.23881 27.4102C7.08422 32.7962 6.6345 37.495 9.30569 39.4751C10.019 40.0034 10.8972 40.2699 11.9148 40.2699C14.9514 40.2699 19.1395 37.8371 23.4535 33.7926C27.5863 37.7363 31.5504 40.0857 34.4174 40.0857C35.3411 40.0857 36.1426 39.8463 36.8027 39.3743C39.3275 37.5628 38.9951 33.1383 37.0527 27.9665C43.249 26.5466 47.8451 24.0208 47.8451 20.4957ZM34.8264 2.65904C35.4186 2.65904 35.909 2.79861 36.2802 3.07484C37.8194 4.21465 37.6488 7.86767 35.7443 12.7429C33.1206 12.2205 30.2623 11.8861 27.3731 11.7455C26.4639 10.6309 25.5461 9.58514 24.6282 8.60719C28.8259 4.68957 32.5836 2.65904 34.8264 2.65904ZM16.0631 25.18C16.5167 25.811 16.9762 26.4255 17.4394 27.0293C15.4293 26.8073 13.58 26.4885 11.9129 26.1056C12.5032 24.8282 13.1894 23.4935 13.9929 22.1076C14.6481 23.133 15.3333 24.1613 16.0631 25.18ZM12.1572 14.8383C13.6769 14.4962 15.343 14.2122 17.1438 14.0048C16.8366 14.4003 16.5293 14.7957 16.2269 15.2037C15.4574 16.2428 14.7188 17.3147 14.0132 18.4012C13.326 17.1945 12.7067 16.0034 12.1572 14.8383ZM15.1133 20.2554C15.9178 18.9818 16.8065 17.6772 17.7845 16.3581C18.4629 15.4422 19.1443 14.5825 19.8247 13.7557C21.2301 13.6588 22.6956 13.6045 24.2202 13.6045C24.9655 13.6045 25.6934 13.6191 26.4106 13.6433C27.0833 14.4904 27.7588 15.3714 28.4324 16.3096C29.5722 17.8992 30.5773 19.4557 31.4787 20.9716C30.712 22.1715 29.8756 23.3966 28.9548 24.6363C28.2502 25.5861 27.5427 26.4797 26.8361 27.3336C25.9822 27.3675 25.1138 27.3898 24.2202 27.3898C22.7905 27.3898 21.4181 27.3375 20.0922 27.2522C19.2752 26.2471 18.4562 25.1887 17.6381 24.0489C16.7358 22.7909 15.8935 21.5202 15.1133 20.2554ZM30.5133 25.7906C31.2199 24.835 31.8993 23.8502 32.5526 22.8548C33.2495 24.1323 33.8591 25.3632 34.3777 26.5389C32.855 26.8093 31.2093 27.0235 29.4598 27.1689C29.8126 26.7162 30.1654 26.2607 30.5133 25.7906ZM30.0074 15.1795C29.6643 14.7036 29.3193 14.2394 28.9742 13.7809C31.1395 13.9428 33.1535 14.2093 34.9766 14.5602C34.3234 16.0063 33.5441 17.5289 32.6137 19.1146C31.7947 17.778 30.9224 16.456 30.0074 15.1795ZM24.7862 11.6709C24.5982 11.669 24.4092 11.6661 24.2211 11.6661C23.3391 11.6661 22.4523 11.6864 21.5674 11.7242C22.1305 11.0991 22.6878 10.5185 23.2422 9.95829C23.752 10.502 24.2667 11.071 24.7862 11.6709ZM10.398 2.55824C10.7208 2.32757 11.1433 2.21029 11.6532 2.21029C13.864 2.21029 17.6439 4.37942 21.8863 8.56842C20.8705 9.59774 19.8548 10.7046 18.8516 11.8919C16.2318 12.1139 13.6827 12.4957 11.3585 13.0327C10.9282 11.9956 10.5521 10.9837 10.2546 10.0164C9.0944 6.24131 9.14867 3.45381 10.398 2.55824ZM2.53564 20.4957C2.53564 18.6435 5.41812 16.6731 10.2468 15.3133C10.9892 16.9222 11.8635 18.5767 12.8521 20.2515C11.7743 22.0426 10.8128 23.8483 10.0084 25.6113C5.32217 24.2573 2.53564 22.3188 2.53564 20.4957ZM11.9139 38.3344C11.3207 38.3344 10.8303 38.1948 10.4591 37.9195C8.88504 36.7526 9.10215 32.9542 11.1317 27.9103C13.5955 28.4948 16.32 28.8999 19.1191 29.1238C20.1 30.3004 21.0866 31.4053 22.0723 32.4221C17.8921 36.3164 14.1499 38.3344 11.9139 38.3344ZM21.8087 29.2818C22.6132 29.3118 23.4186 29.3283 24.2202 29.3283C24.5226 29.3283 24.824 29.3254 25.1264 29.3205C24.5691 29.937 24.0166 30.5117 23.468 31.0671C22.9204 30.5049 22.367 29.9079 21.8087 29.2818ZM35.6735 37.8022C34.0258 38.9857 29.799 37.1209 24.8502 32.4318C25.832 31.4383 26.8109 30.3702 27.7821 29.2265C30.3088 29.085 32.8065 28.7991 35.1346 28.3668C36.9762 33.1829 37.1496 36.7419 35.6735 37.8022ZM36.3171 26.1492C35.5902 24.4676 34.7101 22.7327 33.7292 21.0007C34.9524 18.9915 36.0428 16.9542 36.919 14.9837C42.5124 16.3368 45.9056 18.4865 45.9056 20.4967C45.9066 22.5786 42.2662 24.8068 36.3171 26.1492Z" fill="url(#paint0_linear_402_48)"/>
<path d="M24.2212 24.2593C26.2992 24.2593 27.9837 22.5747 27.9837 20.4967C27.9837 18.4187 26.2992 16.7342 24.2212 16.7342C22.1432 16.7342 20.4586 18.4187 20.4586 20.4967C20.4586 22.5747 22.1432 24.2593 24.2212 24.2593Z" fill="url(#paint1_linear_402_48)"/>
<defs>
<linearGradient id="paint0_linear_402_48" x1="24.2213" y1="16.7341" x2="24.2213" y2="24.2592" gradientUnits="userSpaceOnUse">
<stop stop-color="#35394C"/>
<stop offset="0.583333" stop-color="#354C49"/>
</linearGradient>
<linearGradient id="paint1_linear_402_48" x1="24.2213" y1="16.7341" x2="24.2213" y2="24.2592" gradientUnits="userSpaceOnUse">
<stop stop-color="#35394C"/>
<stop offset="0.583333" stop-color="#354C49"/>
</linearGradient>
</defs>
</svg>
