<svg width="40" height="40" viewBox="0 0 40 40" fill="none" xmlns="http://www.w3.org/2000/svg">
<path d="M20 0C8.95469 0 0 8.95469 0 20C0 31.0453 8.95469 40 20 40C31.0453 40 40 31.0453 40 20C40 8.95469 31.0453 0 20 0ZM15.8153 2.5107C14.19 4.30336 12.8073 6.31734 11.72 8.50734C10.3953 8.01531 9.14203 7.38398 7.93664 6.67938C10.14 4.68266 12.8307 3.22531 15.8153 2.5107ZM6.47867 8.15734C7.87531 9.00867 9.33797 9.76133 10.89 10.3434C9.80602 13.0354 9.16867 15.9473 9.05203 19H2.0507C2.28 14.8573 3.90664 11.09 6.47867 8.15734ZM2.0507 21H9.05203C9.16867 24.0527 9.80602 26.9647 10.89 29.6566C9.33797 30.2387 7.87469 30.9913 6.47867 31.8427C3.90664 28.91 2.28 25.1427 2.0507 21ZM7.93664 33.3207C9.14133 32.6154 10.3946 31.9847 11.72 31.4927C12.8073 33.6827 14.19 35.6967 15.8153 37.4894C12.8307 36.7747 10.1393 35.318 7.93664 33.3207ZM19 37.798C16.82 35.8387 14.9827 33.5087 13.6327 30.8793C15.3527 30.4013 17.1487 30.1146 19 30.0373V37.798ZM19 28.0373C16.8587 28.1194 14.784 28.4547 12.806 29.0253C11.7827 26.5307 11.1773 23.832 11.0594 21H19V28.0373ZM19 19H11.0594C11.1773 16.168 11.7827 13.4693 12.806 10.9747C14.784 11.5447 16.8587 11.8807 19 11.962V19ZM19 9.96336C17.1487 9.88539 15.3527 9.59867 13.6327 9.1207C14.9827 6.49203 16.82 4.16203 19 2.20273V9.96336ZM37.9494 19H30.948C30.8314 15.9473 30.1941 13.0353 29.1101 10.3434C30.6621 9.76133 32.1248 9.00867 33.5214 8.15734C36.094 11.0907 37.72 14.858 37.9494 19ZM32.064 6.6793C30.8587 7.38461 29.6053 8.01531 28.28 8.50727C27.1927 6.31727 25.81 4.30328 24.1847 2.51063C27.1693 3.22531 29.8607 4.68203 32.064 6.6793ZM21 2.20266C23.18 4.16195 25.0173 6.49195 26.3673 9.12133C24.6473 9.59867 22.8513 9.88531 21 9.96266V2.20266ZM21 19V11.9627C23.1413 11.8813 25.216 11.5453 27.194 10.9753C28.2173 13.47 28.8227 16.1687 28.9406 19.0006L21 19ZM21 21H28.9407C28.8227 23.832 28.2173 26.5307 27.1941 29.0253C25.2161 28.4546 23.1414 28.1193 21.0001 28.0373L21 21ZM21 37.798V30.0373C22.8513 30.1147 24.6473 30.4013 26.3673 30.8794C25.0173 33.5087 23.18 35.838 21 37.798ZM24.1847 37.4893C25.81 35.6966 27.1927 33.6827 28.28 31.4927C29.6047 31.9847 30.858 32.616 32.0634 33.3206C29.8607 35.3173 27.1693 36.7747 24.1847 37.4893ZM33.5213 31.8427C32.1247 30.9913 30.662 30.2387 29.11 29.6566C30.194 26.9646 30.8313 24.0527 30.948 21H37.9493C37.72 25.1427 36.0934 28.91 33.5213 31.8427Z" fill="url(#paint0_linear_402_69)"/>
<defs>
<linearGradient id="paint0_linear_402_69" x1="20" y1="0" x2="20" y2="40" gradientUnits="userSpaceOnUse">
<stop stop-color="#35394C"/>
<stop offset="0.729167" stop-color="#354C49"/>
</linearGradient>
</defs>
</svg>
